<mxfile host="app.diagrams.net" modified="2023-12-07T15:43:04.620Z" agent="Mozilla/5.0 (X11; Linux x86_64; rv:109.0) Gecko/20100101 Firefox/115.0" etag="Qw0M9RVisQUG3Ce4_zSv" version="22.1.7" type="github">
  <diagram name="Page-1" id="jQWwyC68a8cOKM-7hP4k">
    <mxGraphModel dx="769" dy="1119" grid="0" gridSize="10" guides="1" tooltips="1" connect="1" arrows="1" fold="1" page="0" pageScale="1" pageWidth="850" pageHeight="1100" math="0" shadow="0">
      <root>
        <mxCell id="0" />
        <mxCell id="1" parent="0" />
        <mxCell id="0uEO1pMvAHEfa2qB6vsm-22" value="" style="rounded=0;whiteSpace=wrap;html=1;fontSize=16;" vertex="1" parent="1">
          <mxGeometry x="215" y="189" width="318" height="152" as="geometry" />
        </mxCell>
        <mxCell id="0uEO1pMvAHEfa2qB6vsm-6" style="edgeStyle=none;curved=1;rounded=0;orthogonalLoop=1;jettySize=auto;html=1;exitX=0.5;exitY=0;exitDx=0;exitDy=0;exitPerimeter=0;fontSize=12;startSize=8;endSize=8;entryX=-0.003;entryY=0.424;entryDx=0;entryDy=0;entryPerimeter=0;" edge="1" parent="1" source="0uEO1pMvAHEfa2qB6vsm-1" target="0uEO1pMvAHEfa2qB6vsm-2">
          <mxGeometry relative="1" as="geometry">
            <mxPoint x="273" y="-14" as="targetPoint" />
            <Array as="points">
              <mxPoint x="83" y="-47" />
            </Array>
          </mxGeometry>
        </mxCell>
        <mxCell id="0uEO1pMvAHEfa2qB6vsm-1" value="Login" style="html=1;whiteSpace=wrap;strokeColor=none;fillColor=#0079D6;labelPosition=center;verticalLabelPosition=middle;verticalAlign=top;align=center;fontSize=12;outlineConnect=0;spacingTop=-6;fontColor=#FFFFFF;sketch=0;shape=mxgraph.sitemap.login;" vertex="1" parent="1">
          <mxGeometry x="48" y="125" width="120" height="70" as="geometry" />
        </mxCell>
        <mxCell id="0uEO1pMvAHEfa2qB6vsm-7" style="edgeStyle=none;curved=1;rounded=0;orthogonalLoop=1;jettySize=auto;html=1;fontSize=12;startSize=8;endSize=8;" edge="1" parent="1" source="0uEO1pMvAHEfa2qB6vsm-2" target="0uEO1pMvAHEfa2qB6vsm-3">
          <mxGeometry relative="1" as="geometry" />
        </mxCell>
        <mxCell id="0uEO1pMvAHEfa2qB6vsm-8" style="edgeStyle=none;curved=1;rounded=0;orthogonalLoop=1;jettySize=auto;html=1;fontSize=12;startSize=8;endSize=8;" edge="1" parent="1" source="0uEO1pMvAHEfa2qB6vsm-2" target="0uEO1pMvAHEfa2qB6vsm-22">
          <mxGeometry relative="1" as="geometry">
            <mxPoint x="352.9999999999999" y="95.05882352941171" as="targetPoint" />
          </mxGeometry>
        </mxCell>
        <mxCell id="0uEO1pMvAHEfa2qB6vsm-2" value="" style="image;aspect=fixed;html=1;points=[];align=center;fontSize=12;image=img/lib/azure2/intune/Device_Security_Google.svg;" vertex="1" parent="1">
          <mxGeometry x="343" y="-38.5" width="68" height="69" as="geometry" />
        </mxCell>
        <mxCell id="0uEO1pMvAHEfa2qB6vsm-3" value="" style="image;html=1;image=img/lib/clip_art/computers/Database_128x128.png;fontSize=16;" vertex="1" parent="1">
          <mxGeometry x="529" y="-49.5" width="80" height="80" as="geometry" />
        </mxCell>
        <mxCell id="0uEO1pMvAHEfa2qB6vsm-18" value="" style="group" vertex="1" connectable="0" parent="1">
          <mxGeometry x="243.5" y="221" width="60" height="96" as="geometry" />
        </mxCell>
        <mxCell id="0uEO1pMvAHEfa2qB6vsm-21" value="" style="group" vertex="1" connectable="0" parent="0uEO1pMvAHEfa2qB6vsm-18">
          <mxGeometry width="60" height="96" as="geometry" />
        </mxCell>
        <mxCell id="0uEO1pMvAHEfa2qB6vsm-4" value="" style="sketch=0;aspect=fixed;pointerEvents=1;shadow=0;dashed=0;html=1;strokeColor=none;labelPosition=center;verticalLabelPosition=bottom;verticalAlign=top;align=center;shape=mxgraph.mscae.enterprise.user_permissions;fillColor=#0078D7;fontSize=16;" vertex="1" parent="0uEO1pMvAHEfa2qB6vsm-21">
          <mxGeometry x="6.5" width="47" height="50" as="geometry" />
        </mxCell>
        <mxCell id="0uEO1pMvAHEfa2qB6vsm-15" value="Aplicante" style="text;strokeColor=none;fillColor=none;html=1;align=center;verticalAlign=middle;whiteSpace=wrap;rounded=0;fontSize=16;" vertex="1" parent="0uEO1pMvAHEfa2qB6vsm-21">
          <mxGeometry y="66" width="60" height="30" as="geometry" />
        </mxCell>
        <mxCell id="0uEO1pMvAHEfa2qB6vsm-19" value="" style="group" vertex="1" connectable="0" parent="1">
          <mxGeometry x="338" y="221" width="60" height="96" as="geometry" />
        </mxCell>
        <mxCell id="0uEO1pMvAHEfa2qB6vsm-11" value="" style="sketch=0;aspect=fixed;pointerEvents=1;shadow=0;dashed=0;html=1;strokeColor=none;labelPosition=center;verticalLabelPosition=bottom;verticalAlign=top;align=center;shape=mxgraph.mscae.enterprise.user_permissions;fillColor=#0078D7;fontSize=16;" vertex="1" parent="0uEO1pMvAHEfa2qB6vsm-19">
          <mxGeometry x="6.5" width="47" height="50" as="geometry" />
        </mxCell>
        <mxCell id="0uEO1pMvAHEfa2qB6vsm-16" value="Reclutador" style="text;strokeColor=none;fillColor=none;html=1;align=center;verticalAlign=middle;whiteSpace=wrap;rounded=0;fontSize=16;" vertex="1" parent="0uEO1pMvAHEfa2qB6vsm-19">
          <mxGeometry y="66" width="60" height="30" as="geometry" />
        </mxCell>
        <mxCell id="0uEO1pMvAHEfa2qB6vsm-20" value="" style="group" vertex="1" connectable="0" parent="1">
          <mxGeometry x="432" y="221" width="60" height="96" as="geometry" />
        </mxCell>
        <mxCell id="0uEO1pMvAHEfa2qB6vsm-12" value="" style="sketch=0;aspect=fixed;pointerEvents=1;shadow=0;dashed=0;html=1;strokeColor=none;labelPosition=center;verticalLabelPosition=bottom;verticalAlign=top;align=center;shape=mxgraph.mscae.enterprise.user_permissions;fillColor=#0078D7;fontSize=16;" vertex="1" parent="0uEO1pMvAHEfa2qB6vsm-20">
          <mxGeometry x="6.5" width="47" height="50" as="geometry" />
        </mxCell>
        <mxCell id="0uEO1pMvAHEfa2qB6vsm-17" value="Administrador" style="text;strokeColor=none;fillColor=none;html=1;align=center;verticalAlign=middle;whiteSpace=wrap;rounded=0;fontSize=16;" vertex="1" parent="0uEO1pMvAHEfa2qB6vsm-20">
          <mxGeometry y="66" width="60" height="30" as="geometry" />
        </mxCell>
        <mxCell id="0uEO1pMvAHEfa2qB6vsm-23" value="Permisos" style="text;strokeColor=none;fillColor=none;html=1;align=center;verticalAlign=middle;whiteSpace=wrap;rounded=0;fontSize=16;" vertex="1" parent="1">
          <mxGeometry x="338" y="-89" width="60" height="30" as="geometry" />
        </mxCell>
        <mxCell id="0uEO1pMvAHEfa2qB6vsm-24" value="Base de datos de Usuarios" style="text;strokeColor=none;fillColor=none;html=1;align=center;verticalAlign=middle;whiteSpace=wrap;rounded=0;fontSize=16;" vertex="1" parent="1">
          <mxGeometry x="516" y="-102" width="114" height="30" as="geometry" />
        </mxCell>
        <mxCell id="0uEO1pMvAHEfa2qB6vsm-26" value="Vista Aplicante" style="html=1;whiteSpace=wrap;strokeColor=none;fillColor=#0079D6;labelPosition=center;verticalLabelPosition=middle;verticalAlign=top;align=center;fontSize=12;outlineConnect=0;spacingTop=-6;fontColor=#FFFFFF;sketch=0;shape=mxgraph.sitemap.page;" vertex="1" parent="1">
          <mxGeometry x="85" y="453" width="120" height="70" as="geometry" />
        </mxCell>
        <mxCell id="0uEO1pMvAHEfa2qB6vsm-27" value="Vista Reclutador" style="html=1;whiteSpace=wrap;strokeColor=none;fillColor=#0079D6;labelPosition=center;verticalLabelPosition=middle;verticalAlign=top;align=center;fontSize=12;outlineConnect=0;spacingTop=-6;fontColor=#FFFFFF;sketch=0;shape=mxgraph.sitemap.page;" vertex="1" parent="1">
          <mxGeometry x="305" y="453" width="120" height="70" as="geometry" />
        </mxCell>
        <mxCell id="0uEO1pMvAHEfa2qB6vsm-28" value="Vista Administrador" style="html=1;whiteSpace=wrap;strokeColor=none;fillColor=#0079D6;labelPosition=center;verticalLabelPosition=middle;verticalAlign=top;align=center;fontSize=12;outlineConnect=0;spacingTop=-6;fontColor=#FFFFFF;sketch=0;shape=mxgraph.sitemap.page;" vertex="1" parent="1">
          <mxGeometry x="525" y="453" width="120" height="70" as="geometry" />
        </mxCell>
        <mxCell id="0uEO1pMvAHEfa2qB6vsm-29" style="edgeStyle=none;curved=1;rounded=0;orthogonalLoop=1;jettySize=auto;html=1;entryX=0.5;entryY=0;entryDx=0;entryDy=0;entryPerimeter=0;fontSize=12;startSize=8;endSize=8;exitX=0.138;exitY=1;exitDx=0;exitDy=0;exitPerimeter=0;" edge="1" parent="1" source="0uEO1pMvAHEfa2qB6vsm-22" target="0uEO1pMvAHEfa2qB6vsm-26">
          <mxGeometry relative="1" as="geometry" />
        </mxCell>
        <mxCell id="0uEO1pMvAHEfa2qB6vsm-30" style="edgeStyle=none;curved=1;rounded=0;orthogonalLoop=1;jettySize=auto;html=1;exitX=0.5;exitY=1;exitDx=0;exitDy=0;entryX=0.5;entryY=0;entryDx=0;entryDy=0;entryPerimeter=0;fontSize=12;startSize=8;endSize=8;" edge="1" parent="1" source="0uEO1pMvAHEfa2qB6vsm-22" target="0uEO1pMvAHEfa2qB6vsm-27">
          <mxGeometry relative="1" as="geometry" />
        </mxCell>
        <mxCell id="0uEO1pMvAHEfa2qB6vsm-31" style="edgeStyle=none;curved=1;rounded=0;orthogonalLoop=1;jettySize=auto;html=1;exitX=0.75;exitY=1;exitDx=0;exitDy=0;entryX=0.5;entryY=0;entryDx=0;entryDy=0;entryPerimeter=0;fontSize=12;startSize=8;endSize=8;" edge="1" parent="1" source="0uEO1pMvAHEfa2qB6vsm-22" target="0uEO1pMvAHEfa2qB6vsm-28">
          <mxGeometry relative="1" as="geometry" />
        </mxCell>
      </root>
    </mxGraphModel>
  </diagram>
</mxfile>
